# Blender v3.1.2 OBJ File: 'Node.blend'
# www.blender.org
mtllib OreNode.mtl
o Cube
v 0.000000 -0.151837 0.000000
v 0.723600 0.400948 0.525720
v -0.276385 0.400948 0.850640
v -0.894425 0.400948 0.000000
v -0.276385 0.400948 -0.850640
v 0.723600 0.400948 -0.525720
v 0.276385 1.295378 0.850640
v -0.723600 1.295378 0.525720
v -0.723600 1.295378 -0.525720
v 0.276385 1.295378 -0.850640
v 0.894425 1.295378 0.000000
v 0.000000 1.848163 0.000000
vt 0.181819 0.000000
vt 0.272728 0.157461
vt 0.090910 0.157461
vt 0.363637 0.000000
vt 0.454546 0.157461
vt 0.909091 0.000000
vt 1.000000 0.157461
vt 0.818182 0.157461
vt 0.727273 0.000000
vt 0.636364 0.157461
vt 0.545455 0.000000
vt 0.363637 0.314921
vt 0.181819 0.314921
vt 0.909091 0.314921
vt 0.727273 0.314921
vt 0.545455 0.314921
vt 0.000000 0.314921
vt 0.272728 0.472382
vt 0.090910 0.472382
vt 0.818182 0.472382
vt 0.636364 0.472382
vt 0.454546 0.472382
vn 0.1876 -0.7947 0.5774
vn 0.6071 -0.7947 0.0000
vn -0.4911 -0.7947 0.3568
vn -0.4911 -0.7947 -0.3568
vn 0.1876 -0.7947 -0.5774
vn 0.9822 -0.1876 0.0000
vn 0.3035 -0.1876 0.9342
vn -0.7946 -0.1876 0.5774
vn -0.7946 -0.1876 -0.5774
vn 0.3035 -0.1876 -0.9342
vn 0.7946 0.1876 0.5774
vn -0.3035 0.1876 0.9342
vn -0.9822 0.1876 0.0000
vn -0.3035 0.1876 -0.9342
vn 0.7946 0.1876 -0.5774
vn 0.4911 0.7947 0.3568
vn -0.1876 0.7947 0.5774
vn -0.6071 0.7947 0.0000
vn -0.1876 0.7947 -0.5774
vn 0.4911 0.7947 -0.3568
usemtl Material.001
s off
f 1/1/1 2/2/1 3/3/1
f 2/2/2 1/4/2 6/5/2
f 1/6/3 3/7/3 4/8/3
f 1/9/4 4/8/4 5/10/4
f 1/11/5 5/10/5 6/5/5
f 2/2/6 6/5/6 11/12/6
f 3/3/7 2/2/7 7/13/7
f 4/8/8 3/7/8 8/14/8
f 5/10/9 4/8/9 9/15/9
f 6/5/10 5/10/10 10/16/10
f 2/2/11 11/12/11 7/13/11
f 3/3/12 7/13/12 8/17/12
f 4/8/13 8/14/13 9/15/13
f 5/10/14 9/15/14 10/16/14
f 6/5/15 10/16/15 11/12/15
f 7/13/16 11/12/16 12/18/16
f 8/17/17 7/13/17 12/19/17
f 9/15/18 8/14/18 12/20/18
f 10/16/19 9/15/19 12/21/19
f 11/12/20 10/16/20 12/22/20
o Icosphere
v -0.585161 -1.058130 -0.169675
v 0.220401 -0.882580 0.814425
v -1.291567 -0.805894 1.123140
v -1.632967 -0.336897 -0.624236
v -0.236288 -0.943302 -1.659318
v 0.675173 -0.941796 -0.384674
v 0.236287 0.070464 1.659318
v -0.675173 0.941796 0.384674
v -0.317500 0.289480 -0.974306
v 1.291566 -0.066944 -1.123140
v 1.632967 -0.535941 0.624236
v 0.585161 1.058130 0.169675
vt 0.181819 0.000000
vt 0.272728 0.157461
vt 0.090910 0.157461
vt 0.363637 0.000000
vt 0.454546 0.157461
vt 0.909091 0.000000
vt 1.000000 0.157461
vt 0.818182 0.157461
vt 0.727273 0.000000
vt 0.636364 0.157461
vt 0.545455 0.000000
vt 0.363637 0.314921
vt 0.181819 0.314921
vt 0.909091 0.314921
vt 0.727273 0.314921
vt 0.545455 0.314921
vt 0.000000 0.314921
vt 0.272728 0.472382
vt 0.090910 0.472382
vt 0.818182 0.472382
vt 0.636364 0.472382
vt 0.454546 0.472382
vn -0.0120 -0.9826 0.1851
vn 0.1066 -0.9903 0.0894
vn -0.5259 -0.8416 -0.1231
vn -0.5024 -0.8451 -0.1828
vn 0.0820 -0.9950 -0.0575
vn 0.2540 -0.9565 0.1436
vn 0.1181 -0.6598 0.7421
vn -0.8613 0.4228 0.2818
vn -0.4150 0.4209 -0.8066
vn 0.5575 -0.7286 -0.3978
vn 0.2551 -0.6438 0.7214
vn -0.5230 0.4816 0.7032
vn -0.4780 0.7361 -0.4792
vn 0.0271 0.4869 -0.8730
vn 0.6311 -0.7094 -0.3137
vn 0.6350 0.5670 0.5247
vn 0.0180 0.8314 0.5554
vn -0.1592 0.8730 -0.4610
vn 0.1158 0.7797 -0.6153
vn 0.8378 0.5458 -0.0172
usemtl Material
s off
f 13/23/21 14/24/21 15/25/21
f 14/24/22 13/26/22 18/27/22
f 13/28/23 15/29/23 16/30/23
f 13/31/24 16/30/24 17/32/24
f 13/33/25 17/32/25 18/27/25
f 14/24/26 18/27/26 23/34/26
f 15/25/27 14/24/27 19/35/27
f 16/30/28 15/29/28 20/36/28
f 17/32/29 16/30/29 21/37/29
f 18/27/30 17/32/30 22/38/30
f 14/24/31 23/34/31 19/35/31
f 15/25/32 19/35/32 20/39/32
f 16/30/33 20/36/33 21/37/33
f 17/32/34 21/37/34 22/38/34
f 18/27/35 22/38/35 23/34/35
f 19/35/36 23/34/36 24/40/36
f 20/39/37 19/35/37 24/41/37
f 21/37/38 20/36/38 24/42/38
f 22/38/39 21/37/39 24/43/39
f 23/34/40 22/38/40 24/44/40
o Cube.001
v -0.163896 -0.770107 0.050460
v 0.255503 0.038146 0.576180
v -0.649327 -0.387593 0.901100
v -1.208556 -0.650720 0.050460
v -0.649327 -0.387593 -0.800180
v 0.255503 0.038146 -0.475260
v -0.529955 0.657065 0.901100
v -1.434785 0.231327 0.576180
v -1.434785 0.231327 -0.475260
v -0.529955 0.657065 -0.800180
v 0.029274 0.920192 0.050460
v -1.015386 1.039580 0.050460
vt 0.181819 0.000000
vt 0.272728 0.157461
vt 0.090910 0.157461
vt 0.363637 0.000000
vt 0.454546 0.157461
vt 0.909091 0.000000
vt 1.000000 0.157461
vt 0.818182 0.157461
vt 0.727273 0.000000
vt 0.636364 0.157461
vt 0.545455 0.000000
vt 0.363637 0.314921
vt 0.181819 0.314921
vt 0.909091 0.314921
vt 0.727273 0.314921
vt 0.545455 0.314921
vt 0.000000 0.314921
vt 0.272728 0.472382
vt 0.090910 0.472382
vt 0.818182 0.472382
vt 0.636364 0.472382
vt 0.454546 0.472382
vn 0.5081 -0.6392 0.5774
vn 0.8876 -0.4606 0.0000
vn -0.1061 -0.9281 0.3568
vn -0.1061 -0.9281 -0.3568
vn 0.5081 -0.6392 -0.5774
vn 0.9686 0.2484 0.0000
vn 0.3545 -0.0405 0.9342
vn -0.6392 -0.5081 0.5774
vn -0.6392 -0.5081 -0.5774
vn 0.3545 -0.0405 -0.9342
vn 0.6392 0.5081 0.5774
vn -0.3545 0.0405 0.9342
vn -0.9686 -0.2484 0.0000
vn -0.3545 0.0405 -0.9342
vn 0.6392 0.5081 -0.5774
vn 0.1061 0.9281 0.3568
vn -0.5081 0.6392 0.5774
vn -0.8876 0.4606 0.0000
vn -0.5081 0.6392 -0.5774
vn 0.1061 0.9281 -0.3568
usemtl Material.001
s off
f 25/45/41 26/46/41 27/47/41
f 26/46/42 25/48/42 30/49/42
f 25/50/43 27/51/43 28/52/43
f 25/53/44 28/52/44 29/54/44
f 25/55/45 29/54/45 30/49/45
f 26/46/46 30/49/46 35/56/46
f 27/47/47 26/46/47 31/57/47
f 28/52/48 27/51/48 32/58/48
f 29/54/49 28/52/49 33/59/49
f 30/49/50 29/54/50 34/60/50
f 26/46/51 35/56/51 31/57/51
f 27/47/52 31/57/52 32/61/52
f 28/52/53 32/58/53 33/59/53
f 29/54/54 33/59/54 34/60/54
f 30/49/55 34/60/55 35/56/55
f 31/57/56 35/56/56 36/62/56
f 32/61/57 31/57/57 36/63/57
f 33/59/58 32/58/58 36/64/58
f 34/60/59 33/59/59 36/65/59
f 35/56/60 34/60/60 36/66/60
